<svg id="visual" viewBox="0 0 900 50" width="900" height="50" xmlns="http://www.w3.org/2000/svg" xmlns:xlink="http://www.w3.org/1999/xlink" version="1.1"><rect x="0" y="0" width="900" height="50" fill="#FFEEA8"></rect><path d="M0 19L5.3 17.5C10.7 16 21.3 13 32 11.5C42.7 10 53.3 10 64 12C74.7 14 85.3 18 96.2 18.7C107 19.3 118 16.7 128.8 16.5C139.7 16.3 150.3 18.7 161 20.3C171.7 22 182.3 23 193 23.3C203.7 23.7 214.3 23.3 225 22.3C235.7 21.3 246.3 19.7 257 20.3C267.7 21 278.3 24 289 22.7C299.7 21.3 310.3 15.7 321.2 15.3C332 15 343 20 353.8 23C364.7 26 375.3 27 386 24.7C396.7 22.3 407.3 16.7 418 13.7C428.7 10.7 439.3 10.3 450 10.2C460.7 10 471.3 10 482 12.7C492.7 15.3 503.3 20.7 514 22.8C524.7 25 535.3 24 546.2 22C557 20 568 17 578.8 17.3C589.7 17.7 600.3 21.3 611 22C621.7 22.7 632.3 20.3 643 18.7C653.7 17 664.3 16 675 15.5C685.7 15 696.3 15 707 15.5C717.7 16 728.3 17 739 19.3C749.7 21.7 760.3 25.3 771.2 26.5C782 27.7 793 26.3 803.8 24.8C814.7 23.3 825.3 21.7 836 21.3C846.7 21 857.3 22 868 23.3C878.7 24.7 889.3 26.3 894.7 27.2L900 28L900 0L894.7 0C889.3 0 878.7 0 868 0C857.3 0 846.7 0 836 0C825.3 0 814.7 0 803.8 0C793 0 782 0 771.2 0C760.3 0 749.7 0 739 0C728.3 0 717.7 0 707 0C696.3 0 685.7 0 675 0C664.3 0 653.7 0 643 0C632.3 0 621.7 0 611 0C600.3 0 589.7 0 578.8 0C568 0 557 0 546.2 0C535.3 0 524.7 0 514 0C503.3 0 492.7 0 482 0C471.3 0 460.7 0 450 0C439.3 0 428.7 0 418 0C407.3 0 396.7 0 386 0C375.3 0 364.7 0 353.8 0C343 0 332 0 321.2 0C310.3 0 299.7 0 289 0C278.3 0 267.7 0 257 0C246.3 0 235.7 0 225 0C214.3 0 203.7 0 193 0C182.3 0 171.7 0 161 0C150.3 0 139.7 0 128.8 0C118 0 107 0 96.2 0C85.3 0 74.7 0 64 0C53.3 0 42.7 0 32 0C21.3 0 10.7 0 5.3 0L0 0Z" fill="#B5E4FE" stroke-linecap="round" stroke-linejoin="miter"></path></svg>