<svg id="visual" viewBox="0 0 900 50" width="900" height="50" xmlns="http://www.w3.org/2000/svg" xmlns:xlink="http://www.w3.org/1999/xlink" version="1.1"><rect x="0" y="0" width="900" height="50" fill="#ffffff"></rect><path d="M0 6L10.7 6.8C21.3 7.7 42.7 9.3 64.2 9.8C85.7 10.3 107.3 9.7 128.8 9.7C150.3 9.7 171.7 10.3 193 10C214.3 9.7 235.7 8.3 257 8C278.3 7.7 299.7 8.3 321.2 8.8C342.7 9.3 364.3 9.7 385.8 10C407.3 10.3 428.7 10.7 450 10.8C471.3 11 492.7 11 514.2 10.7C535.7 10.3 557.3 9.7 578.8 9.7C600.3 9.7 621.7 10.3 643 10.2C664.3 10 685.7 9 707 8.2C728.3 7.3 749.7 6.7 771.2 7C792.7 7.3 814.3 8.7 835.8 9.5C857.3 10.3 878.7 10.7 889.3 10.8L900 11" fill="none" stroke-linecap="round" stroke-linejoin="miter" stroke="#FFEEA8" stroke-width="40"></path></svg>